<svg width="221" height="112" fill="none" xmlns="http://www.w3.org/2000/svg"><path d="M220.5 50c0 13.49-12.107 25.866-32.071 34.9-19.918 9.012-47.47 14.6-77.929 14.6-30.46 0-58.011-5.588-77.93-14.6C12.608 75.866.5 63.49.5 50c0-13.49 12.107-25.866 32.07-34.9C52.49 6.087 80.04.5 110.5.5c30.459 0 58.011 5.587 77.929 14.6C208.393 24.134 220.5 36.51 220.5 50z" stroke="#FF4040"/><path d="M220.5 62c0 13.49-12.107 25.866-32.071 34.9-19.918 9.013-47.47 14.6-77.929 14.6-30.46 0-58.011-5.587-77.93-14.6C12.608 87.866.5 75.49.5 62c0-13.49 12.107-25.866 32.07-34.9 19.919-9.013 47.47-14.6 77.93-14.6 30.459 0 58.011 5.587 77.929 14.6C208.393 36.134 220.5 48.51 220.5 62z" stroke="#FF4040"/></svg>